<?xml version="1.0" standalone="no"?>
<!DOCTYPE svg PUBLIC "-//W3C//DTD SVG 20010904//EN"
 "http://www.w3.org/TR/2001/REC-SVG-20010904/DTD/svg10.dtd">
<svg version="1.0" xmlns="http://www.w3.org/2000/svg"
 width="2250.000000pt" height="2250.000000pt" viewBox="0 0 2250.000000 2250.000000"
 preserveAspectRatio="xMidYMid meet">
<metadata>
Created by potrace 1.14, written by Peter Selinger 2001-2017
</metadata>
<g transform="translate(0.000000,2250.000000) scale(0.100000,-0.100000)"
fill="#000000" stroke="none">
<path d="M10985 19973 c-459 -37 -918 -147 -1419 -338 -65 -25 -132 -51 -150
-59 -17 -7 -60 -26 -96 -41 -218 -93 -379 -168 -615 -287 -170 -85 -314 -160
-450 -233 -33 -18 -105 -56 -160 -85 -55 -29 -113 -60 -130 -70 -16 -10 -82
-45 -145 -78 -63 -33 -149 -79 -190 -101 -218 -119 -766 -386 -925 -451 -44
-18 -84 -37 -90 -41 -5 -5 -15 -9 -22 -9 -7 0 -32 -9 -56 -19 -45 -21 -275
-108 -422 -161 -49 -18 -99 -36 -110 -40 -11 -5 -36 -14 -55 -20 -19 -7 -345
-117 -725 -245 -873 -294 -1051 -358 -1390 -501 -151 -64 -155 -65 -385 -177
-843 -411 -1348 -892 -1722 -1639 -32 -64 -58 -120 -58 -125 0 -4 -6 -20 -14
-34 -24 -46 -149 -389 -142 -389 2 0 -4 -22 -15 -50 -10 -27 -17 -50 -14 -50
3 0 1 -8 -4 -18 -18 -33 -88 -347 -117 -521 -3 -18 -7 -41 -9 -50 -2 -15 -12
-77 -20 -131 -2 -14 -9 -65 -15 -115 -5 -49 -12 -108 -15 -130 -8 -64 -19
-201 -30 -355 -16 -223 -19 -631 -19 -2160 0 -1745 3 -1998 29 -2292 3 -34 8
-90 10 -123 3 -33 7 -76 10 -95 2 -19 7 -60 10 -90 10 -91 16 -131 30 -225 8
-49 17 -108 21 -130 3 -22 10 -59 15 -83 5 -23 12 -59 15 -79 8 -49 70 -302
95 -388 90 -304 230 -641 348 -835 11 -19 24 -42 28 -50 16 -36 172 -264 247
-360 72 -93 320 -353 401 -420 236 -198 514 -382 782 -520 64 -33 123 -65 131
-72 8 -7 18 -13 21 -12 3 0 42 -16 86 -36 155 -72 191 -88 290 -129 55 -23
109 -46 120 -51 23 -11 224 -89 340 -132 163 -61 434 -154 955 -328 583 -195
912 -309 985 -340 11 -5 76 -29 145 -55 69 -26 139 -53 155 -60 17 -7 85 -36
153 -64 67 -28 164 -70 215 -93 97 -45 633 -313 727 -365 30 -17 159 -85 285
-153 231 -123 301 -161 450 -240 330 -177 778 -391 1077 -514 291 -119 735
-260 948 -300 23 -4 101 -19 160 -31 14 -3 39 -7 55 -10 17 -3 44 -7 60 -10
17 -3 50 -8 75 -11 25 -3 58 -7 75 -9 162 -21 602 -28 770 -13 157 15 375 48
515 79 52 11 102 22 110 24 174 37 664 192 775 245 11 5 72 30 135 56 119 48
151 62 285 124 44 20 109 49 145 65 36 16 72 35 81 42 8 7 20 13 25 13 6 0 68
30 140 66 180 92 449 232 509 264 28 15 86 47 130 70 44 23 103 55 130 70 78
42 239 128 360 193 184 97 703 352 820 402 402 172 669 269 1585 575 294 99
605 204 690 235 85 31 160 57 165 59 12 3 4 1 205 78 405 156 754 321 1045
492 89 53 322 206 357 235 7 6 65 52 128 103 157 127 335 305 453 453 27 33
56 69 65 80 9 11 53 75 98 142 221 328 380 683 495 1103 46 167 40 141 72 295
28 130 53 271 62 350 4 28 8 57 10 65 2 8 7 40 10 70 3 30 8 71 10 90 3 19 7
60 10 90 3 30 7 74 10 97 2 22 7 81 10 130 3 48 8 113 10 143 14 189 19 491
18 1045 -1 347 -2 835 -1 1085 0 250 1 752 2 1115 1 569 -6 938 -19 1050 -2
17 -7 68 -10 115 -3 47 -7 103 -10 125 -8 88 -15 162 -19 195 -3 19 -8 60 -12
90 -3 30 -8 62 -9 70 -2 8 -8 51 -15 95 -9 65 -29 169 -75 395 -2 8 -14 58
-28 110 -180 687 -471 1218 -901 1645 -174 173 -311 284 -531 430 -290 193
-674 393 -1000 520 -38 15 -74 31 -79 36 -6 5 -16 9 -24 9 -7 0 -32 8 -55 19
-49 22 -395 151 -512 191 -44 15 -348 117 -675 227 -999 337 -1245 428 -1645
609 -133 60 -600 293 -775 387 -119 63 -204 109 -280 149 -41 22 -136 73 -210
113 -260 139 -349 185 -596 309 -212 105 -313 153 -509 241 -356 158 -866 329
-1135 379 -14 2 -46 9 -72 15 -74 17 -257 46 -358 56 -30 4 -71 9 -90 12 -40
6 -554 11 -615 6z m490 -628 c131 -9 165 -12 215 -20 439 -65 921 -214 1400
-432 41 -19 107 -48 145 -66 83 -38 635 -315 650 -326 5 -5 69 -39 140 -76
132 -69 219 -115 310 -165 28 -15 95 -51 150 -80 55 -29 123 -65 150 -80 224
-123 720 -363 897 -435 35 -14 71 -30 80 -35 10 -6 35 -16 55 -24 21 -8 97
-37 168 -65 224 -89 572 -213 1090 -386 723 -243 793 -267 975 -333 160 -58
424 -160 485 -187 17 -7 50 -22 75 -33 25 -11 79 -34 120 -52 71 -30 290 -138
392 -193 344 -184 678 -447 884 -697 82 -99 174 -226 174 -239 0 -5 3 -11 8
-13 23 -10 167 -278 237 -442 76 -179 187 -540 211 -686 2 -14 9 -45 14 -70
11 -49 15 -71 30 -170 15 -90 17 -107 25 -170 4 -30 9 -62 10 -70 2 -8 6 -53
10 -100 4 -47 8 -92 10 -100 3 -17 16 -191 21 -285 14 -270 17 -505 15 -980
-3 -579 -4 -1470 -2 -2290 1 -269 -1 -535 -4 -590 -2 -55 -7 -156 -10 -225 -3
-69 -8 -141 -9 -160 -2 -19 -7 -80 -11 -135 -4 -55 -9 -107 -10 -117 -2 -10
-6 -50 -10 -90 -3 -40 -8 -80 -10 -88 -2 -8 -6 -37 -10 -65 -3 -27 -8 -59 -10
-70 -3 -11 -7 -38 -10 -60 -17 -129 -76 -385 -130 -570 -108 -366 -319 -769
-543 -1035 -134 -159 -306 -317 -483 -445 -42 -30 -298 -195 -303 -195 -2 0
-46 -24 -97 -53 -105 -59 -256 -133 -411 -202 -57 -26 -116 -52 -133 -60 -133
-59 -559 -219 -830 -311 -220 -75 -1080 -364 -1135 -381 -25 -8 -67 -23 -95
-34 -27 -10 -124 -45 -215 -78 -290 -104 -521 -197 -770 -309 -146 -65 -708
-345 -762 -379 -21 -13 -38 -21 -38 -17 0 3 -12 -3 -27 -14 -16 -10 -73 -43
-128 -72 -55 -29 -104 -56 -109 -61 -6 -5 -18 -9 -27 -9 -10 0 -19 -4 -21 -8
-1 -5 -70 -44 -153 -87 -82 -43 -154 -81 -160 -85 -16 -11 -484 -253 -495
-255 -3 -1 -72 -34 -155 -74 -132 -64 -187 -90 -205 -96 -3 -1 -27 -12 -55
-24 -275 -124 -568 -231 -825 -302 -156 -43 -391 -93 -480 -104 -30 -3 -62 -8
-70 -10 -8 -2 -49 -7 -90 -10 -41 -4 -95 -8 -120 -10 -61 -6 -389 -6 -420 -1
-14 2 -57 7 -97 11 -119 10 -225 25 -348 50 -38 8 -83 17 -100 19 -58 10 -331
88 -476 136 -174 58 -453 170 -674 271 -141 64 -681 333 -775 386 -19 11 -80
44 -135 73 -55 29 -149 79 -208 112 -59 32 -110 58 -112 58 -2 0 -30 15 -62
34 -150 87 -692 360 -903 456 -253 115 -601 254 -875 350 -167 59 -671 231
-685 235 -18 4 -528 175 -730 243 -557 191 -1065 406 -1369 579 -53 31 -105
61 -116 67 -86 48 -322 215 -420 297 -90 75 -277 268 -347 358 -144 184 -286
425 -368 621 -17 41 -38 89 -45 106 -52 115 -152 463 -189 659 -19 98 -36 197
-41 230 -3 23 -7 50 -9 60 -2 11 -6 45 -10 75 -3 30 -9 78 -12 105 -7 56 -9
79 -18 185 -25 294 -36 608 -36 1000 4 1938 9 3258 13 3315 3 39 8 115 11 170
4 55 9 123 11 150 8 89 16 169 20 195 2 14 6 50 10 80 13 109 48 322 71 425 8
39 16 80 19 92 21 115 139 491 184 588 6 11 34 72 64 137 207 443 528 813 937
1081 47 31 90 61 97 67 7 5 14 10 16 10 2 0 41 23 87 50 183 110 539 278 845
400 119 47 496 188 520 194 6 2 17 6 25 9 8 4 242 83 520 176 663 222 660 221
915 311 370 131 613 228 905 360 124 56 572 278 710 352 118 63 646 345 755
403 255 136 616 313 855 420 292 131 750 292 940 330 8 2 42 10 75 18 33 9 87
21 120 26 33 6 71 13 85 16 14 3 45 8 70 11 25 3 73 10 107 15 35 5 116 12
180 15 65 4 119 7 120 8 5 4 218 -2 308 -9z"/>
<path d="M11198 19105 c-1 -2 -56 -6 -121 -10 -64 -3 -125 -8 -135 -9 -9 -2
-44 -7 -77 -11 -350 -40 -909 -210 -1331 -405 -38 -18 -105 -48 -149 -68 -129
-59 -760 -380 -790 -402 -5 -4 -73 -40 -150 -80 -77 -40 -158 -83 -180 -95
-38 -21 -90 -49 -315 -168 -287 -151 -635 -321 -845 -413 -170 -74 -619 -250
-725 -284 -14 -5 -117 -41 -230 -80 -113 -39 -421 -144 -685 -232 -556 -186
-888 -303 -1100 -388 -651 -259 -1079 -510 -1381 -807 -124 -123 -141 -142
-223 -253 -225 -302 -371 -638 -487 -1115 -4 -16 -8 -34 -10 -40 -6 -24 -54
-294 -58 -330 -3 -22 -7 -53 -10 -70 -2 -16 -7 -59 -11 -95 -3 -36 -8 -76 -10
-90 -9 -63 -22 -222 -30 -383 -13 -240 -15 -350 -14 -947 2 -960 1 -1411 -2
-2085 -3 -675 4 -988 26 -1220 3 -27 7 -77 10 -110 76 -899 340 -1586 783
-2039 238 -243 622 -493 1052 -685 41 -18 99 -44 128 -57 29 -13 55 -24 57
-24 3 0 24 -9 48 -19 109 -50 488 -191 752 -281 77 -26 365 -123 640 -215 731
-244 1047 -359 1400 -508 184 -78 252 -110 580 -272 265 -132 350 -176 575
-297 104 -56 208 -111 320 -171 52 -27 100 -53 105 -57 14 -10 265 -140 465
-242 612 -310 1157 -514 1580 -591 116 -22 214 -37 275 -42 289 -26 492 -23
725 11 58 9 118 18 134 20 15 2 35 6 45 8 9 3 32 8 51 11 19 3 55 11 80 16 25
6 54 12 65 15 72 14 436 129 545 171 420 162 816 352 1505 722 888 478 1203
628 1755 841 271 104 424 158 1100 385 577 193 737 248 915 313 160 58 478
185 568 226 42 20 80 36 82 36 10 0 328 161 410 208 81 46 355 224 378 245 6
7 44 37 82 68 461 369 769 963 901 1739 4 25 8 47 9 50 1 3 5 32 9 65 4 32 9
67 11 76 3 14 8 56 20 159 7 60 14 142 20 225 3 44 8 98 10 120 12 123 19 493
17 965 -2 592 -1 1470 1 2355 1 507 -5 847 -18 957 -2 18 -7 71 -10 118 -13
161 -13 158 -40 350 -22 158 -24 174 -56 327 -126 610 -367 1087 -725 1439
-337 330 -813 598 -1559 875 -88 33 -167 62 -175 66 -8 3 -19 7 -25 9 -5 2
-251 85 -545 184 -294 99 -578 194 -630 211 -52 17 -104 35 -115 40 -11 4 -78
28 -150 52 -251 86 -659 240 -805 304 -19 8 -48 21 -65 28 -177 74 -665 312
-980 478 -300 158 -343 181 -390 207 -27 15 -90 49 -140 75 -49 27 -144 77
-210 112 -492 263 -1002 489 -1375 611 -135 44 -366 108 -425 117 -11 2 -54
10 -95 18 -41 9 -95 18 -120 22 -25 3 -65 8 -90 12 -25 3 -54 7 -65 9 -11 2
-90 7 -175 10 -85 3 -160 7 -167 9 -6 2 -13 2 -15 0z"/>
</g>
</svg>
